<?xml version="1.0" standalone="no"?>
<!DOCTYPE svg PUBLIC "-//W3C//DTD SVG 20010904//EN" "http://www.w3.org/TR/2001/REC-SVG-20010904/DTD/svg10.dtd">
<svg version="1.0" xmlns="http://www.w3.org/2000/svg"
     width="512" height="512" viewBox="0 0 512 512"
     preserveAspectRatio="xMidYMid meet">
    <g transform="translate(0,512) scale(0.1,-0.1)" fill="#000000">
        <!-- Círculo de fundo -->
        <path d="M2380 4740 c-494 -48 -950 -244 -1320 -566 -473 -412 -760 -1001 -760
        -1559 0 -557 287 -1146 760 -1559 412 -359 931 -560 1495 -576 557 -16 1146
        287 1559 760 359 412 560 931 576 1495 16 557 -287 1146 -760 1559 -412 359
        -931 560 -1495 576 -25 1 -47 1 -55 0z"/>
        
        <!-- Letra V -->
        <path d="M1500 3800 l1060 -2400 1060 2400 -420 0 -640 -1600 -640 1600 -420 0z"/>
        
        <!-- Símbolo de fibra -->
        <path d="M2560 2560 c-440 0 -800 -360 -800 -800 0 -440 360 -800 800 -800 440
        0 800 360 800 800 0 440 -360 800 -800 800z m0 -400 c220 0 400 -180 400 -400
        0 -220 -180 -400 -400 -400 -220 0 -400 180 -400 400 0 220 180 400 400 400z"/>
    </g>
</svg> 