<?xml version="1.0" encoding="UTF-8"?>
<svg width="1920px" height="1080px" viewBox="0 0 1920 1080" version="1.1" xmlns="http://www.w3.org/2000/svg" xmlns:xlink="http://www.w3.org/1999/xlink">
    <defs>
        <linearGradient x1="0%" y1="0%" x2="100%" y2="100%" id="bgGradient">
            <stop stop-color="#0a3d62" offset="0%"></stop>
            <stop stop-color="#0f5c8c" offset="100%"></stop>
        </linearGradient>
        <linearGradient x1="0%" y1="0%" x2="100%" y2="100%" id="gridGradient">
            <stop stop-color="#3498db" offset="0%"></stop>
            <stop stop-color="#2980b9" offset="100%"></stop>
        </linearGradient>
        <radialGradient id="radialGlow" cx="50%" cy="50%" r="50%" fx="50%" fy="50%">
            <stop offset="0%" stop-color="#3498db" stop-opacity="0.4"/>
            <stop offset="100%" stop-color="#0a3d62" stop-opacity="0"/>
        </radialGradient>
    </defs>
    
    <!-- Background -->
    <rect width="1920" height="1080" fill="url(#bgGradient)"/>
    
    <!-- Glow effect -->
    <circle cx="960" cy="540" r="600" fill="url(#radialGlow)"/>
    
    <!-- Grid pattern -->
    <g opacity="0.15">
        <!-- Horizontal lines -->
        <line x1="0" y1="100" x2="1920" y2="100" stroke="#fff" stroke-width="1"/>
        <line x1="0" y1="200" x2="1920" y2="200" stroke="#fff" stroke-width="1"/>
        <line x1="0" y1="300" x2="1920" y2="300" stroke="#fff" stroke-width="1"/>
        <line x1="0" y1="400" x2="1920" y2="400" stroke="#fff" stroke-width="1"/>
        <line x1="0" y1="500" x2="1920" y2="500" stroke="#fff" stroke-width="1"/>
        <line x1="0" y1="600" x2="1920" y2="600" stroke="#fff" stroke-width="1"/>
        <line x1="0" y1="700" x2="1920" y2="700" stroke="#fff" stroke-width="1"/>
        <line x1="0" y1="800" x2="1920" y2="800" stroke="#fff" stroke-width="1"/>
        <line x1="0" y1="900" x2="1920" y2="900" stroke="#fff" stroke-width="1"/>
        <line x1="0" y1="1000" x2="1920" y2="1000" stroke="#fff" stroke-width="1"/>
        
        <!-- Vertical lines -->
        <line x1="100" y1="0" x2="100" y2="1080" stroke="#fff" stroke-width="1"/>
        <line x1="300" y1="0" x2="300" y2="1080" stroke="#fff" stroke-width="1"/>
        <line x1="500" y1="0" x2="500" y2="1080" stroke="#fff" stroke-width="1"/>
        <line x1="700" y1="0" x2="700" y2="1080" stroke="#fff" stroke-width="1"/>
        <line x1="900" y1="0" x2="900" y2="1080" stroke="#fff" stroke-width="1"/>
        <line x1="1100" y1="0" x2="1100" y2="1080" stroke="#fff" stroke-width="1"/>
        <line x1="1300" y1="0" x2="1300" y2="1080" stroke="#fff" stroke-width="1"/>
        <line x1="1500" y1="0" x2="1500" y2="1080" stroke="#fff" stroke-width="1"/>
        <line x1="1700" y1="0" x2="1700" y2="1080" stroke="#fff" stroke-width="1"/>
        <line x1="1900" y1="0" x2="1900" y2="1080" stroke="#fff" stroke-width="1"/>
    </g>
    
    <!-- Network nodes -->
    <g opacity="0.9">
        <!-- Main nodes -->
        <circle cx="960" cy="540" r="20" fill="url(#gridGradient)"/>
        <circle cx="700" cy="400" r="15" fill="url(#gridGradient)"/>
        <circle cx="1200" cy="650" r="15" fill="url(#gridGradient)"/>
        <circle cx="500" cy="700" r="15" fill="url(#gridGradient)"/>
        <circle cx="1400" cy="350" r="15" fill="url(#gridGradient)"/>
        <circle cx="800" cy="800" r="15" fill="url(#gridGradient)"/>
        <circle cx="1100" cy="200" r="15" fill="url(#gridGradient)"/>
        
        <!-- Secondary nodes -->
        <circle cx="600" cy="300" r="5" fill="#fff" opacity="0.7"/>
        <circle cx="1000" cy="700" r="5" fill="#fff" opacity="0.7"/>
        <circle cx="450" cy="500" r="5" fill="#fff" opacity="0.7"/>
        <circle cx="1300" cy="450" r="5" fill="#fff" opacity="0.7"/>
        <circle cx="850" cy="600" r="5" fill="#fff" opacity="0.7"/>
        <circle cx="1500" cy="600" r="5" fill="#fff" opacity="0.7"/>
        <circle cx="350" cy="800" r="5" fill="#fff" opacity="0.7"/>
        <circle cx="1550" cy="250" r="5" fill="#fff" opacity="0.7"/>
        <circle cx="750" cy="200" r="5" fill="#fff" opacity="0.7"/>
        <circle cx="1250" cy="800" r="5" fill="#fff" opacity="0.7"/>
        
        <!-- Minor nodes (a lot of them) -->
        <g opacity="0.5">
            <circle cx="400" cy="250" r="2" fill="#fff"/>
            <circle cx="550" cy="350" r="2" fill="#fff"/>
            <circle cx="1050" cy="450" r="2" fill="#fff"/>
            <circle cx="1150" cy="550" r="2" fill="#fff"/>
            <circle cx="650" cy="650" r="2" fill="#fff"/>
            <circle cx="750" cy="750" r="2" fill="#fff"/>
            <circle cx="850" cy="850" r="2" fill="#fff"/>
            <circle cx="950" cy="950" r="2" fill="#fff"/>
            <circle cx="1250" cy="250" r="2" fill="#fff"/>
            <circle cx="1350" cy="350" r="2" fill="#fff"/>
            <circle cx="1450" cy="450" r="2" fill="#fff"/>
            <circle cx="1550" cy="550" r="2" fill="#fff"/>
            <circle cx="1650" cy="650" r="2" fill="#fff"/>
            <circle cx="1750" cy="750" r="2" fill="#fff"/>
            <circle cx="350" cy="350" r="2" fill="#fff"/>
            <circle cx="450" cy="450" r="2" fill="#fff"/>
            <circle cx="550" cy="550" r="2" fill="#fff"/>
            <circle cx="650" cy="650" r="2" fill="#fff"/>
            <circle cx="750" cy="750" r="2" fill="#fff"/>
            <circle cx="850" cy="850" r="2" fill="#fff"/>
            <circle cx="950" cy="950" r="2" fill="#fff"/>
            <circle cx="1050" cy="1050" r="2" fill="#fff"/>
            <circle cx="1150" cy="150" r="2" fill="#fff"/>
            <circle cx="1250" cy="250" r="2" fill="#fff"/>
            <circle cx="1350" cy="350" r="2" fill="#fff"/>
            <circle cx="1450" cy="450" r="2" fill="#fff"/>
            <circle cx="1550" cy="550" r="2" fill="#fff"/>
            <circle cx="1650" cy="650" r="2" fill="#fff"/>
            <circle cx="1750" cy="750" r="2" fill="#fff"/>
            <circle cx="1850" cy="850" r="2" fill="#fff"/>
            <circle cx="250" cy="950" r="2" fill="#fff"/>
            <circle cx="350" cy="150" r="2" fill="#fff"/>
            <circle cx="450" cy="250" r="2" fill="#fff"/>
            <!-- Add more dots as needed -->
        </g>
    </g>
    
    <!-- Connection lines -->
    <g opacity="0.6">
        <line x1="960" y1="540" x2="700" y2="400" stroke="#2ecc71" stroke-width="2"/>
        <line x1="960" y1="540" x2="1200" y2="650" stroke="#2ecc71" stroke-width="2"/>
        <line x1="960" y1="540" x2="500" y2="700" stroke="#2ecc71" stroke-width="2"/>
        <line x1="960" y1="540" x2="1400" y2="350" stroke="#2ecc71" stroke-width="2"/>
        <line x1="960" y1="540" x2="800" y2="800" stroke="#2ecc71" stroke-width="2"/>
        <line x1="960" y1="540" x2="1100" y2="200" stroke="#2ecc71" stroke-width="2"/>
        
        <line x1="700" y1="400" x2="600" y2="300" stroke="#fff" stroke-width="1"/>
        <line x1="1200" y1="650" x2="1000" y2="700" stroke="#fff" stroke-width="1"/>
        <line x1="500" y1="700" x2="450" y2="500" stroke="#fff" stroke-width="1"/>
        <line x1="1400" y1="350" x2="1300" y2="450" stroke="#fff" stroke-width="1"/>
        <line x1="800" y1="800" x2="850" y2="600" stroke="#fff" stroke-width="1"/>
        <line x1="1100" y1="200" x2="1500" y2="600" stroke="#fff" stroke-width="1"/>
    </g>
    
    <!-- Moving data particles -->
    <g>
        <circle cx="960" cy="540" r="3" fill="#fff">
            <animate attributeName="cx" from="960" to="700" dur="4s" begin="0s" repeatCount="indefinite"/>
            <animate attributeName="cy" from="540" to="400" dur="4s" begin="0s" repeatCount="indefinite"/>
            <animate attributeName="opacity" from="1" to="0" dur="4s" begin="0s" repeatCount="indefinite"/>
        </circle>
        
        <circle cx="960" cy="540" r="3" fill="#fff">
            <animate attributeName="cx" from="960" to="1200" dur="5s" begin="1s" repeatCount="indefinite"/>
            <animate attributeName="cy" from="540" to="650" dur="5s" begin="1s" repeatCount="indefinite"/>
            <animate attributeName="opacity" from="1" to="0" dur="5s" begin="1s" repeatCount="indefinite"/>
        </circle>
        
        <circle cx="960" cy="540" r="3" fill="#fff">
            <animate attributeName="cx" from="960" to="500" dur="6s" begin="2s" repeatCount="indefinite"/>
            <animate attributeName="cy" from="540" to="700" dur="6s" begin="2s" repeatCount="indefinite"/>
            <animate attributeName="opacity" from="1" to="0" dur="6s" begin="2s" repeatCount="indefinite"/>
        </circle>
        
        <circle cx="960" cy="540" r="3" fill="#fff">
            <animate attributeName="cx" from="960" to="1400" dur="4.5s" begin="1.5s" repeatCount="indefinite"/>
            <animate attributeName="cy" from="540" to="350" dur="4.5s" begin="1.5s" repeatCount="indefinite"/>
            <animate attributeName="opacity" from="1" to="0" dur="4.5s" begin="1.5s" repeatCount="indefinite"/>
        </circle>
        
        <circle cx="960" cy="540" r="3" fill="#fff">
            <animate attributeName="cx" from="960" to="800" dur="5.5s" begin="0.5s" repeatCount="indefinite"/>
            <animate attributeName="cy" from="540" to="800" dur="5.5s" begin="0.5s" repeatCount="indefinite"/>
            <animate attributeName="opacity" from="1" to="0" dur="5.5s" begin="0.5s" repeatCount="indefinite"/>
        </circle>
        
        <circle cx="960" cy="540" r="3" fill="#fff">
            <animate attributeName="cx" from="960" to="1100" dur="3.5s" begin="2.5s" repeatCount="indefinite"/>
            <animate attributeName="cy" from="540" to="200" dur="3.5s" begin="2.5s" repeatCount="indefinite"/>
            <animate attributeName="opacity" from="1" to="0" dur="3.5s" begin="2.5s" repeatCount="indefinite"/>
        </circle>
    </g>
</svg> 