<?xml version="1.0" encoding="UTF-8"?>
<svg width="800px" height="600px" viewBox="0 0 800 600" version="1.1" xmlns="http://www.w3.org/2000/svg" xmlns:xlink="http://www.w3.org/1999/xlink">
    <title>Consultoria</title>
    <defs>
        <linearGradient x1="0%" y1="0%" x2="100%" y2="100%" id="linearGradient-1">
            <stop stop-color="#0d6efd" offset="0%"></stop>
            <stop stop-color="#0a58ca" offset="100%"></stop>
        </linearGradient>
    </defs>
    <g id="Consultoria" stroke="none" stroke-width="1" fill="none" fill-rule="evenodd">
        <rect fill="#F5F7FA" x="0" y="0" width="800" height="600"></rect>
        <g id="ConsultingServices" transform="translate(100, 80)">
            <!-- Mesa de Reunião Central -->
            <ellipse id="table" fill="#6c757d" cx="300" cy="200" rx="150" ry="70"></ellipse>
            <ellipse id="table-inner" fill="#495057" cx="300" cy="200" rx="130" ry="55"></ellipse>
            
            <!-- Documentos e Itens na Mesa -->
            <rect id="paper1" fill="#FFFFFF" x="250" y="180" width="30" height="40" rx="0"></rect>
            <line id="paper1-line1" stroke="#adb5bd" stroke-width="1" x1="255" y1="190" x2="275" y2="190"></line>
            <line id="paper1-line2" stroke="#adb5bd" stroke-width="1" x1="255" y1="200" x2="275" y2="200"></line>
            <line id="paper1-line3" stroke="#adb5bd" stroke-width="1" x1="255" y1="210" x2="275" y2="210"></line>
            
            <rect id="paper2" fill="#FFFFFF" x="320" y="170" width="30" height="40" rx="0"></rect>
            <line id="paper2-line1" stroke="#adb5bd" stroke-width="1" x1="325" y1="180" x2="345" y2="180"></line>
            <line id="paper2-line2" stroke="#adb5bd" stroke-width="1" x1="325" y1="190" x2="345" y2="190"></line>
            <line id="paper2-line3" stroke="#adb5bd" stroke-width="1" x1="325" y1="200" x2="345" y2="200"></line>
            
            <rect id="laptop" fill="#343a40" x="280" y="190" width="40" height="30" rx="2"></rect>
            <rect id="laptop-screen" fill="#6c757d" x="285" y="195" width="30" height="20" rx="1"></rect>
            
            <!-- Pessoas ao redor da mesa -->
            <!-- Person 1 (Consultor) -->
            <circle id="person1-head" fill="#0d6efd" cx="300" cy="100" r="15"></circle>
            <rect id="person1-body" fill="#0d6efd" x="290" y="115" width="20" height="30" rx="5"></rect>
            
            <!-- Person 2 -->
            <circle id="person2-head" fill="#6c757d" cx="200" cy="160" r="15"></circle>
            <rect id="person2-body" fill="#6c757d" x="190" y="175" width="20" height="30" rx="5"></rect>
            
            <!-- Person 3 -->
            <circle id="person3-head" fill="#6c757d" cx="400" cy="160" r="15"></circle>
            <rect id="person3-body" fill="#6c757d" x="390" y="175" width="20" height="30" rx="5"></rect>
            
            <!-- Person 4 -->
            <circle id="person4-head" fill="#6c757d" cx="240" cy="300" r="15"></circle>
            <rect id="person4-body" fill="#6c757d" x="230" y="285" width="20" height="30" rx="5"></rect>
            
            <!-- Person 5 -->
            <circle id="person5-head" fill="#6c757d" cx="360" cy="300" r="15"></circle>
            <rect id="person5-body" fill="#6c757d" x="350" y="285" width="20" height="30" rx="5"></rect>
            
            <!-- Quadro com Gráfico -->
            <rect id="whiteboard" fill="#FFFFFF" x="500" y="150" width="100" height="70" rx="2"></rect>
            <rect id="board-frame" stroke="#343a40" stroke-width="2" fill="none" x="500" y="150" width="100" height="70" rx="2"></rect>
            <line id="board-stand" stroke="#343a40" stroke-width="2" x1="550" y1="220" x2="550" y2="250"></line>
            <rect id="board-base" fill="#343a40" x="525" y="250" width="50" height="5" rx="1"></rect>
            
            <!-- Gráfico no Quadro -->
            <line id="chart-x" stroke="#495057" stroke-width="2" x1="510" y1="200" x2="590" y2="200"></line>
            <line id="chart-y" stroke="#495057" stroke-width="2" x1="510" y1="200" x2="510" y2="160"></line>
            <polyline id="chart-line" stroke="#0d6efd" stroke-width="2" fill="none" points="510,190 525,185 540,175 555,180 570,165 585,170"></polyline>
            <circle id="chart-point1" fill="#0d6efd" cx="525" cy="185" r="3"></circle>
            <circle id="chart-point2" fill="#0d6efd" cx="540" cy="175" r="3"></circle>
            <circle id="chart-point3" fill="#0d6efd" cx="555" cy="180" r="3"></circle>
            <circle id="chart-point4" fill="#0d6efd" cx="570" cy="165" r="3"></circle>
            <circle id="chart-point5" fill="#0d6efd" cx="585" cy="170" r="3"></circle>
            
            <!-- Estante com Documentação -->
            <rect id="bookshelf" fill="#6c757d" x="50" y="150" width="100" height="120" rx="0"></rect>
            <rect id="shelf1" fill="#343a40" x="50" y="180" width="100" height="2" rx="0"></rect>
            <rect id="shelf2" fill="#343a40" x="50" y="210" width="100" height="2" rx="0"></rect>
            <rect id="shelf3" fill="#343a40" x="50" y="240" width="100" height="2" rx="0"></rect>
            
            <!-- Livros e Pastas na Estante -->
            <rect id="book1" fill="#0d6efd" x="60" y="155" width="10" height="25" rx="0"></rect>
            <rect id="book2" fill="#0a58ca" x="70" y="155" width="10" height="25" rx="0"></rect>
            <rect id="book3" fill="#6c757d" x="80" y="155" width="10" height="25" rx="0"></rect>
            <rect id="book4" fill="#343a40" x="90" y="155" width="10" height="25" rx="0"></rect>
            <rect id="book5" fill="#0d6efd" x="100" y="155" width="10" height="25" rx="0"></rect>
            <rect id="book6" fill="#495057" x="110" y="155" width="10" height="25" rx="0"></rect>
            
            <rect id="folder1" fill="#ffc107" x="60" y="182" width="30" height="25" rx="2"></rect>
            <rect id="folder2" fill="#ffc107" x="95" y="182" width="30" height="25" rx="2"></rect>
            
            <rect id="binder1" fill="#0d6efd" x="60" y="212" width="15" height="25" rx="0"></rect>
            <rect id="binder2" fill="#0a58ca" x="80" y="212" width="15" height="25" rx="0"></rect>
            <rect id="binder3" fill="#6c757d" x="100" y="212" width="15" height="25" rx="0"></rect>
            <rect id="binder4" fill="#0d6efd" x="120" y="212" width="15" height="25" rx="0"></rect>
            
            <!-- Elementos do processo de consultoria -->
            <!-- Ícones de Processo -->
            <rect id="process-bg" fill="#FFFFFF" x="70" y="340" width="470" height="100" rx="5"></rect>
            
            <circle id="process1" fill="#e9ecef" cx="120" cy="380" r="20"></circle>
            <text font-family="Arial" font-size="12" font-weight="bold" fill="#495057" x="115" y="384">1</text>
            
            <circle id="process2" fill="#e9ecef" cx="200" cy="380" r="20"></circle>
            <text font-family="Arial" font-size="12" font-weight="bold" fill="#495057" x="195" y="384">2</text>
            
            <circle id="process3" fill="#e9ecef" cx="280" cy="380" r="20"></circle>
            <text font-family="Arial" font-size="12" font-weight="bold" fill="#495057" x="275" y="384">3</text>
            
            <circle id="process4" fill="#e9ecef" cx="360" cy="380" r="20"></circle>
            <text font-family="Arial" font-size="12" font-weight="bold" fill="#495057" x="355" y="384">4</text>
            
            <circle id="process5" fill="#e9ecef" cx="440" cy="380" r="20"></circle>
            <text font-family="Arial" font-size="12" font-weight="bold" fill="#495057" x="435" y="384">5</text>
            
            <!-- Linhas conectando os ícones de processo -->
            <line id="process-line1" stroke="#adb5bd" stroke-width="2" x1="140" y1="380" x2="180" y2="380"></line>
            <line id="process-line2" stroke="#adb5bd" stroke-width="2" x1="220" y1="380" x2="260" y2="380"></line>
            <line id="process-line3" stroke="#adb5bd" stroke-width="2" x1="300" y1="380" x2="340" y2="380"></line>
            <line id="process-line4" stroke="#adb5bd" stroke-width="2" x1="380" y1="380" x2="420" y2="380"></line>
            
            <!-- Ícone de Lâmpada (Ideia) -->
            <circle id="idea-bulb" fill="#ffc107" cx="520" cy="380" r="25"></circle>
            <polygon id="idea-light" fill="#FFFFFF" points="520,370 525,380 515,380"></polygon>
            <rect id="idea-base" fill="#6c757d" x="515" y="395" width="10" height="10" rx="2"></rect>
            
            <!-- Texto Explicativo -->
            <text font-family="Arial" font-size="10" font-weight="bold" fill="#495057" x="95" y="420">Diagnóstico</text>
            <text font-family="Arial" font-size="10" font-weight="bold" fill="#495057" x="175" y="420">Análise</text>
            <text font-family="Arial" font-size="10" font-weight="bold" fill="#495057" x="255" y="420">Planejamento</text>
            <text font-family="Arial" font-size="10" font-weight="bold" fill="#495057" x="335" y="420">Execução</text>
            <text font-family="Arial" font-size="10" font-weight="bold" fill="#495057" x="415" y="420">Monitoramento</text>
            <text font-family="Arial" font-size="10" font-weight="bold" fill="#495057" x="500" y="420">Resultados</text>
        </g>
    </g>
</svg> 