<?xml version="1.0" encoding="UTF-8"?>
<svg width="512" height="512" viewBox="0 0 512 512" fill="none" xmlns="http://www.w3.org/2000/svg">
    <path d="M256 48C141.1 48 48 141.1 48 256s93.1 208 208 208 208-93.1 208-208S370.9 48 256 48zm0 398.7c-105.1 0-190.7-85.5-190.7-190.7S150.9 65.3 256 65.3 446.7 150.9 446.7 256 361.1 446.7 256 446.7z" fill="white"/>
    <path d="M256 96c-88.4 0-160 71.6-160 160s71.6 160 160 160 160-71.6 160-160S344.4 96 256 96zm0 302.9c-79 0-142.9-64-142.9-142.9S177 113.1 256 113.1 398.9 177 398.9 256 335 398.9 256 398.9z" fill="white"/>
    <path d="M256 144c-61.8 0-112 50.2-112 112s50.2 112 112 112 112-50.2 112-112S317.8 144 256 144zm0 206.9c-52.3 0-94.9-42.6-94.9-94.9S203.7 161.1 256 161.1s94.9 42.6 94.9 94.9S308.3 350.9 256 350.9z" fill="white"/>
    <circle cx="256" cy="256" r="64" fill="white"/>
</svg> 