<svg xmlns="http://www.w3.org/2000/svg" viewBox="0 0 640 512" width="48" height="48">
  <!-- Servidores -->
  <rect x="150" y="50" width="340" height="60" rx="5" ry="5" fill="#0a3d62"/>
  <rect x="170" y="60" width="40" height="5" fill="#ffffff"/>
  <rect x="170" y="75" width="40" height="5" fill="#ffffff"/>
  <rect x="170" y="90" width="40" height="5" fill="#ffffff"/>
  <circle cx="430" cy="65" r="10" fill="#27ae60"/>
  <circle cx="430" cy="95" r="10" fill="#e74c3c"/>
  
  <rect x="150" y="150" width="340" height="60" rx="5" ry="5" fill="#0a3d62"/>
  <rect x="170" y="160" width="40" height="5" fill="#ffffff"/>
  <rect x="170" y="175" width="40" height="5" fill="#ffffff"/>
  <rect x="170" y="190" width="40" height="5" fill="#ffffff"/>
  <circle cx="430" cy="165" r="10" fill="#27ae60"/>
  <circle cx="430" cy="195" r="10" fill="#f39c12"/>
  
  <rect x="150" y="250" width="340" height="60" rx="5" ry="5" fill="#0a3d62"/>
  <rect x="170" y="260" width="40" height="5" fill="#ffffff"/>
  <rect x="170" y="275" width="40" height="5" fill="#ffffff"/>
  <rect x="170" y="290" width="40" height="5" fill="#ffffff"/>
  <circle cx="430" cy="265" r="10" fill="#27ae60"/>
  <circle cx="430" cy="295" r="10" fill="#27ae60"/>
  
  <!-- Switches -->
  <rect x="50" y="400" width="120" height="30" rx="5" ry="5" fill="#3c6382"/>
  <circle cx="70" cy="415" r="5" fill="#ffffff"/>
  <circle cx="90" cy="415" r="5" fill="#ffffff"/>
  <circle cx="110" cy="415" r="5" fill="#ffffff"/>
  <circle cx="130" cy="415" r="5" fill="#ffffff"/>
  <circle cx="150" cy="415" r="5" fill="#ffffff"/>
  
  <rect x="260" y="400" width="120" height="30" rx="5" ry="5" fill="#3c6382"/>
  <circle cx="280" cy="415" r="5" fill="#ffffff"/>
  <circle cx="300" cy="415" r="5" fill="#ffffff"/>
  <circle cx="320" cy="415" r="5" fill="#ffffff"/>
  <circle cx="340" cy="415" r="5" fill="#ffffff"/>
  <circle cx="360" cy="415" r="5" fill="#ffffff"/>
  
  <rect x="470" y="400" width="120" height="30" rx="5" ry="5" fill="#3c6382"/>
  <circle cx="490" cy="415" r="5" fill="#ffffff"/>
  <circle cx="510" cy="415" r="5" fill="#ffffff"/>
  <circle cx="530" cy="415" r="5" fill="#ffffff"/>
  <circle cx="550" cy="415" r="5" fill="#ffffff"/>
  <circle cx="570" cy="415" r="5" fill="#ffffff"/>

  <!-- Conexões -->
  <line x1="320" y1="110" x2="320" y2="150" stroke="#0a3d62" stroke-width="6"/>
  <line x1="320" y1="210" x2="320" y2="250" stroke="#0a3d62" stroke-width="6"/>
  
  <line x1="320" y1="310" x2="320" y2="360" stroke="#0a3d62" stroke-width="6"/>
  <line x1="320" y1="360" x2="110" y2="400" stroke="#0a3d62" stroke-width="4"/>
  <line x1="320" y1="360" x2="320" y2="400" stroke="#0a3d62" stroke-width="4"/>
  <line x1="320" y1="360" x2="530" y2="400" stroke="#0a3d62" stroke-width="4"/>
</svg> 